<svg width="85" height="80" viewBox="0 0 85 80" fill="none" xmlns="http://www.w3.org/2000/svg">
<path d="M3.55664 64.2981C3.55643 64.0364 3.55643 63.7666 3.55643 63.4882V16.494C3.55643 11.9562 3.55643 9.68562 4.49125 7.95243C5.3135 6.42783 6.62463 5.18921 8.23847 4.41242C10.0731 3.5293 12.4766 3.5293 17.2801 3.5293H67.0252C71.8286 3.5293 74.2292 3.5293 76.0638 4.41242C77.6775 5.18921 78.991 6.42783 79.8131 7.95243C80.7471 9.68392 80.7471 11.9518 80.7471 16.4807V63.5C80.7471 65.4648 80.7471 67.0035 80.6708 68.2573M3.55664 64.2981C3.55994 68.3019 3.61376 70.398 4.49125 72.025C5.3135 73.5495 6.62463 74.7924 8.23847 75.569C10.0713 76.4514 12.4719 76.4514 17.266 76.4514H67.0397C71.8337 76.4514 74.2309 76.4514 76.0638 75.569C77.6775 74.7924 78.991 73.5495 79.8131 72.025C80.3418 71.0446 80.5713 69.8936 80.6708 68.2573M3.55664 64.2981L24.0033 41.7627L24.0093 41.7567C25.8228 39.7578 26.731 38.7567 27.8083 38.3958C28.7546 38.079 29.7878 38.0863 30.7294 38.4156C31.8024 38.7912 32.6962 39.8036 34.4837 41.83L45.9388 54.8158C47.5937 56.6919 48.4256 57.635 49.436 58.0138C50.3275 58.3476 51.3104 58.3853 52.2299 58.1289C53.2766 57.8372 54.1982 56.9666 56.0409 55.2258L58.1723 53.2123C60.0484 51.4399 60.9867 50.5543 62.0485 50.2646C62.9808 50.0106 63.9778 50.0653 64.875 50.4149C65.8965 50.8136 66.725 51.7891 68.3824 53.7463L80.6708 68.2573M80.6708 68.2573L80.7471 68.3473M55.0169 27.8367C52.6484 27.8367 50.7285 26.0228 50.7285 23.7854C50.7285 21.548 52.6484 19.7342 55.0169 19.7342C57.3853 19.7342 59.3052 21.548 59.3052 23.7854C59.3052 26.0228 57.3853 27.8367 55.0169 27.8367Z" stroke="black" stroke-width="7" stroke-linecap="round" stroke-linejoin="round"/>
</svg>
